{
  "source": "C:\\Users\\Peter\\Desktop\\stuff\\MIUN\\quantitative_research\\video_compression\\videos\\HEVC_CLASS_B\\Kimono_1920x1080_24.y4m",
  "output": "C:\\Users\\Peter\\Desktop\\stuff\\MIUN\\quantitative_research\\video_compression\\compressed_videos\\HEVC_CLASS_B\\h264\\2\\Kimono_1920x1080_24_h264.mp4",
  "codec": "h264",
  "ok": "Input #0, yuv4mpegpipe, from 'C:\\Users\\Peter\\Desktop\\stuff\\MIUN\\quantitative_research\\video_compression\\videos\\HEVC_CLASS_B\\Kimono_1920x1080_24.y4m':\n  Duration: 00:00:10.00, start: 0.000000, bitrate: 597198 kb/s\n  Stream #0:0: Video: rawvideo (I420 / 0x30323449), yuv420p(progressive), 1920x1080, 24 fps, 24 tbr, 24 tbn\n[out#0/mp4 @ 00000177c6e39880] Codec AVOption b:a (set bitrate (in bits/s)) has not been used for any stream. The most likely reason is either wrong type (e.g. a video option with no video streams) or that it is a private option of some decoder which was not actually used for any stream.\nStream mapping:\n  Stream #0:0 -> #0:0 (rawvideo (native) -> h264 (libx264))\nPress [q] to stop, [?] for help\n[libx264 @ 00000177c6e3c8c0] using cpu capabilities: MMX2 SSE2Fast SSSE3 SSE4.2 AVX FMA3 BMI2 AVX2\n[libx264 @ 00000177c6e3c8c0] profile High, level 5.0, 4:2:0, 8-bit\n[libx264 @ 00000177c6e3c8c0] 264 - core 165 r3222 b35605a - H.264/MPEG-4 AVC codec - Copyleft 2003-2025 - http://www.videolan.org/x264.html - options: cabac=1 ref=5 deblock=1:0:0 analyse=0x3:0x113 me=hex subme=8 psy=1 psy_rd=1.00:0.00 mixed_ref=1 me_range=16 chroma_me=1 trellis=2 8x8dct=1 cqm=0 deadzone=21,11 fast_pskip=1 chroma_qp_offset=-2 threads=18 lookahead_threads=3 sliced_threads=0 nr=0 decimate=1 interlaced=0 bluray_compat=0 constrained_intra=0 bframes=3 b_pyramid=2 b_adapt=1 b_bias=0 direct=3 weightb=1 open_gop=0 weightp=2 keyint=250 keyint_min=24 scenecut=40 intra_refresh=0 rc_lookahead=50 rc=cbr mbtree=1 bitrate=2000 ratetol=1.0 qcomp=0.60 qpmin=0 qpmax=69 qpstep=4 vbv_maxrate=2000 vbv_bufsize=2000 nal_hrd=none filler=0 ip_ratio=1.40 aq=1:1.00\nOutput #0, mp4, to 'C:\\Users\\Peter\\Desktop\\stuff\\MIUN\\quantitative_research\\video_compression\\compressed_videos\\HEVC_CLASS_B\\h264\\2\\Kimono_1920x1080_24_h264.mp4':\n  Metadata:\n    encoder         : Lavf62.3.100\n  Stream #0:0: Video: h264 (avc1 / 0x31637661), yuv420p(tv, progressive), 1920x1080, q=2-31, 2000 kb/s, 24 fps, 12288 tbn\n    Metadata:\n      encoder         : Lavc62.11.100 libx264\n    Side data:\n      cpb: bitrate max/min/avg: 2000000/0/2000000 buffer size: 2000000 vbv_delay: N/A\nframe=    0 fps=0.0 q=0.0 size=       0KiB time=N/A bitrate=N/A speed=N/A elapsed=0:00:00.50    \nframe=    0 fps=0.0 q=0.0 size=       0KiB time=N/A bitrate=N/A speed=N/A elapsed=0:00:01.10    \nframe=    0 fps=0.0 q=0.0 size=       0KiB time=N/A bitrate=N/A speed=N/A elapsed=0:00:01.70    \nframe=    0 fps=0.0 q=0.0 size=       0KiB time=N/A bitrate=N/A speed=N/A elapsed=0:00:02.37    \nframe=    9 fps=2.9 q=38.0 size=       0KiB time=00:00:00.08 bitrate=   4.6kbits/s speed=0.0272x elapsed=0:00:03.06    \nframe=   25 fps=6.6 q=37.0 size=       0KiB time=00:00:00.83 bitrate=   0.5kbits/s speed=0.219x elapsed=0:00:03.79    \nframe=   38 fps=8.4 q=38.0 size=     256KiB time=00:00:01.45 bitrate=1438.3kbits/s speed=0.322x elapsed=0:00:04.52    \nframe=   45 fps=8.8 q=38.0 size=     256KiB time=00:00:01.79 bitrate=1170.7kbits/s speed=0.349x elapsed=0:00:05.14    \nframe=   57 fps=9.7 q=38.0 size=     256KiB time=00:00:02.29 bitrate= 915.3kbits/s speed=0.388x elapsed=0:00:05.90    \nframe=   69 fps= 11 q=38.0 size=     512KiB time=00:00:02.79 bitrate=1502.6kbits/s speed=0.43x elapsed=0:00:06.49    \nframe=   84 fps= 12 q=38.0 size=     512KiB time=00:00:03.20 bitrate=1307.4kbits/s speed=0.449x elapsed=0:00:07.14    \nframe=   93 fps= 12 q=37.0 size=     512KiB time=00:00:03.66 bitrate=1144.0kbits/s speed=0.471x elapsed=0:00:07.78    \nframe=  104 fps= 12 q=37.0 size=     768KiB time=00:00:04.25 bitrate=1480.4kbits/s speed=0.502x elapsed=0:00:08.46    \nframe=  117 fps= 13 q=37.0 size=     768KiB time=00:00:04.66 bitrate=1348.3kbits/s speed=0.51x elapsed=0:00:09.15    \nframe=  133 fps= 14 q=37.0 size=    1024KiB time=00:00:05.29 bitrate=1585.3kbits/s speed=0.539x elapsed=0:00:09.80    \nframe=  148 fps= 14 q=35.0 size=    1024KiB time=00:00:05.95 bitrate=1407.9kbits/s speed=0.564x elapsed=0:00:10.56    \nframe=  161 fps= 14 q=34.0 size=    1280KiB time=00:00:06.62 bitrate=1582.8kbits/s speed=0.59x elapsed=0:00:11.23    \nframe=  181 fps= 15 q=34.0 size=    1280KiB time=00:00:07.33 bitrate=1429.9kbits/s speed=0.615x elapsed=0:00:11.91    \nframe=  201 fps= 16 q=33.0 size=    1536KiB time=00:00:08.12 bitrate=1548.7kbits/s speed=0.641x elapsed=0:00:12.67    \nframe=  213 fps= 16 q=31.0 size=    1536KiB time=00:00:08.79 bitrate=1431.3kbits/s speed=0.663x elapsed=0:00:13.26    \nframe=  221 fps= 16 q=30.0 size=    1536KiB time=00:00:09.12 bitrate=1379.0kbits/s speed=0.66x elapsed=0:00:13.83    \n[mp4 @ 00000177c6e39980] Starting second pass: moving the moov atom to the beginning of the file\n[out#0/mp4 @ 00000177c6e39880] video:1789KiB audio:0KiB subtitle:0KiB other streams:0KiB global headers:0KiB muxing overhead: 0.204340%\nframe=  240 fps= 17 q=-1.0 Lsize=    1793KiB time=00:00:09.91 bitrate=1481.1kbits/s speed=0.687x elapsed=0:00:14.42    \n[libx264 @ 00000177c6e3c8c0] frame I:2     Avg QP:32.16  size: 63520\n[libx264 @ 00000177c6e3c8c0] frame P:60    Avg QP:34.40  size: 16407\n[libx264 @ 00000177c6e3c8c0] frame B:178   Avg QP:38.40  size:  4045\n[libx264 @ 00000177c6e3c8c0] consecutive B-frames:  0.8%  0.0%  2.5% 96.7%\n[libx264 @ 00000177c6e3c8c0] mb I  I16..4: 22.0% 72.4%  5.5%\n[libx264 @ 00000177c6e3c8c0] mb P  I16..4:  0.7%  2.9%  0.0%  P16..4: 42.3%  7.2%  4.6%  0.0%  0.0%    skip:42.3%\n[libx264 @ 00000177c6e3c8c0] mb B  I16..4:  0.0%  0.1%  0.0%  B16..8: 42.0%  1.2%  0.1%  direct: 0.2%  skip:56.4%  L0:40.0% L1:59.4% BI: 0.5%\n[libx264 @ 00000177c6e3c8c0] 8x8 transform intra:76.6% inter:88.1%\n[libx264 @ 00000177c6e3c8c0] direct mvs  spatial:94.4% temporal:5.6%\n[libx264 @ 00000177c6e3c8c0] coded y,uvDC,uvAC intra: 48.6% 40.3% 8.8% inter: 3.8% 3.2% 0.1%\n[libx264 @ 00000177c6e3c8c0] i16 v,h,dc,p: 25% 24%  6% 45%\n[libx264 @ 00000177c6e3c8c0] i8 v,h,dc,ddl,ddr,vr,hd,vl,hu:  6%  4%  4% 12% 17% 14% 17% 11% 15%\n[libx264 @ 00000177c6e3c8c0] i4 v,h,dc,ddl,ddr,vr,hd,vl,hu:  5%  4%  4% 12% 17% 13% 18%  9% 18%\n[libx264 @ 00000177c6e3c8c0] i8c dc,h,v,p: 50% 30% 11%  9%\n[libx264 @ 00000177c6e3c8c0] Weighted P-Frames: Y:0.0% UV:0.0%\n[libx264 @ 00000177c6e3c8c0] ref P L0: 58.8% 16.0% 16.7%  4.4%  4.1%\n[libx264 @ 00000177c6e3c8c0] ref B L0: 92.4%  5.9%  1.3%  0.4%\n[libx264 @ 00000177c6e3c8c0] ref B L1: 98.4%  1.6%\n[libx264 @ 00000177c6e3c8c0] kb/s:1465.18\n",
  "seconds": 14.821412324905396,
  "probe_out": {}
}